<svg width="99" height="33" viewBox="0 0 99 33" fill="none" xmlns="http://www.w3.org/2000/svg">
<path d="M2.66669 13.5C2.66669 10.4555 3.73913 7.9724 5.88402 6.05063C8.02891 4.12885 10.512 3.16752 13.3334 3.16663C16.1547 3.16574 18.6382 4.15463 20.784 6.13329C22.9298 8.11196 24.0018 10.7675 24 14.1L25.8667 12.2333C26.1111 11.9888 26.4222 11.8666 26.8 11.8666C27.1778 11.8666 27.4889 11.9888 27.7334 12.2333C27.9778 12.4777 28.1 12.7888 28.1 13.1666C28.1 13.5444 27.9778 13.8555 27.7334 14.1L23.6 18.2333C23.3334 18.5 23.0222 18.6333 22.6667 18.6333C22.3111 18.6333 22 18.5 21.7334 18.2333L17.6 14.1C17.3556 13.8555 17.2334 13.5444 17.2334 13.1666C17.2334 12.7888 17.3556 12.4777 17.6 12.2333C17.8445 11.9888 18.1556 11.8666 18.5334 11.8666C18.9111 11.8666 19.2222 11.9888 19.4667 12.2333L21.3334 14.1C21.3334 11.6777 20.5614 9.69463 19.0174 8.15063C17.4734 6.60663 15.5787 5.83418 13.3334 5.83329C11.088 5.8324 9.1938 6.57685 7.65069 8.06663C6.10758 9.5564 5.33513 11.3786 5.33335 13.5333C5.33335 15.3777 5.98891 17.3444 7.30002 19.4333C8.61113 21.5222 10.6222 23.8111 13.3334 26.3C13.7778 25.9 14.1889 25.5111 14.5667 25.1333L15.7 24C15.5889 23.7555 15.5 23.5111 15.4334 23.2666C15.3667 23.0222 15.3334 22.7666 15.3334 22.5C15.3334 21.5666 15.6556 20.7777 16.3 20.1333C16.9445 19.4888 17.7334 19.1666 18.6667 19.1666C19.6 19.1666 20.3889 19.4888 21.0334 20.1333C21.6778 20.7777 22 21.5666 22 22.5C22 23.4333 21.6778 24.2222 21.0334 24.8666C20.3889 25.5111 19.6 25.8333 18.6667 25.8333C18.4889 25.8333 18.3276 25.8222 18.1827 25.8C18.0378 25.7777 17.888 25.7444 17.7334 25.7C17.3334 26.1222 16.9165 26.5391 16.4827 26.9506C16.0489 27.3622 15.5991 27.7897 15.1334 28.2333C14.8889 28.4777 14.6058 28.6555 14.284 28.7666C13.9622 28.8777 13.6454 28.9333 13.3334 28.9333C13.0214 28.9333 12.7049 28.8777 12.384 28.7666C12.0631 28.6555 11.7796 28.4777 11.5334 28.2333C8.48891 25.4555 6.25024 22.8724 4.81735 20.484C3.38446 18.0955 2.66758 15.7675 2.66669 13.5Z" fill="#FE6D3C"/>
<path d="M45.168 8.2C46.624 8.2 47.888 8.44 48.96 8.92C50.048 9.4 50.88 10.088 51.456 10.984C52.032 11.88 52.32 12.944 52.32 14.176C52.32 15.392 52.032 16.456 51.456 17.368C50.88 18.264 50.048 18.952 48.96 19.432C47.888 19.912 46.624 20.152 45.168 20.152H41.376V25H38.256V8.2H45.168ZM45.024 17.512C46.384 17.512 47.416 17.224 48.12 16.648C48.824 16.072 49.176 15.248 49.176 14.176C49.176 13.104 48.824 12.28 48.12 11.704C47.416 11.128 46.384 10.84 45.024 10.84H41.376V17.512H45.024ZM67.7901 12.184V25H64.9341V23.368C64.4541 23.944 63.8541 24.392 63.1341 24.712C62.4141 25.016 61.6381 25.168 60.8061 25.168C59.0941 25.168 57.7421 24.696 56.7501 23.752C55.7741 22.792 55.2861 21.376 55.2861 19.504V12.184H58.2861V19.096C58.2861 20.248 58.5421 21.112 59.0541 21.688C59.5821 22.248 60.3261 22.528 61.2861 22.528C62.3581 22.528 63.2061 22.2 63.8301 21.544C64.4701 20.872 64.7901 19.912 64.7901 18.664V12.184H67.7901ZM75.678 25.168C74.638 25.168 73.622 25.032 72.63 24.76C71.638 24.488 70.846 24.144 70.254 23.728L71.406 21.448C71.982 21.832 72.67 22.144 73.47 22.384C74.286 22.608 75.086 22.72 75.87 22.72C77.662 22.72 78.558 22.248 78.558 21.304C78.558 20.856 78.326 20.544 77.862 20.368C77.414 20.192 76.686 20.024 75.678 19.864C74.622 19.704 73.758 19.52 73.086 19.312C72.43 19.104 71.854 18.744 71.358 18.232C70.878 17.704 70.638 16.976 70.638 16.048C70.638 14.832 71.142 13.864 72.15 13.144C73.174 12.408 74.55 12.04 76.278 12.04C77.158 12.04 78.038 12.144 78.918 12.352C79.798 12.544 80.518 12.808 81.078 13.144L79.926 15.424C78.838 14.784 77.614 14.464 76.254 14.464C75.374 14.464 74.702 14.6 74.238 14.872C73.79 15.128 73.566 15.472 73.566 15.904C73.566 16.384 73.806 16.728 74.286 16.936C74.782 17.128 75.542 17.312 76.566 17.488C77.59 17.648 78.43 17.832 79.086 18.04C79.742 18.248 80.302 18.6 80.766 19.096C81.246 19.592 81.486 20.296 81.486 21.208C81.486 22.408 80.966 23.368 79.926 24.088C78.886 24.808 77.47 25.168 75.678 25.168ZM91.3416 12.04C92.9576 12.04 94.2536 12.512 95.2296 13.456C96.2056 14.4 96.6936 15.8 96.6936 17.656V25H93.6936V18.04C93.6936 16.92 93.4296 16.08 92.9016 15.52C92.3736 14.944 91.6216 14.656 90.6456 14.656C89.5416 14.656 88.6696 14.992 88.0296 15.664C87.3896 16.32 87.0696 17.272 87.0696 18.52V25H84.0696V7.192H87.0696V13.672C87.5656 13.144 88.1736 12.744 88.8936 12.472C89.6296 12.184 90.4456 12.04 91.3416 12.04Z" fill="#151415"/>
</svg>
